<?xml version="1.0" encoding="UTF-8" standalone="no" ?>
<!DOCTYPE svg PUBLIC "-//W3C//DTD SVG 1.1//EN" "http://www.w3.org/Graphics/SVG/1.1/DTD/svg11.dtd">
<svg xmlns="http://www.w3.org/2000/svg" xmlns:xlink="http://www.w3.org/1999/xlink" version="1.1" width="376" height="120" viewBox="0 0 376 120" xml:space="preserve">
<desc>Created with Fabric.js 5.3.0</desc>
<defs>
</defs>
<g transform="matrix(0.9994324631 0 0 1 188 60)" id="w_mP2bJK3j5Lw_jckhinB"  >
<g style=""   >
		<g transform="matrix(1 0 0 1 -137.003535513 1.0016495644)" id="rwm5Fx6mCPDDyYZTLS83i"  >
<path style="stroke: none; stroke-width: 1; stroke-dasharray: none; stroke-linecap: butt; stroke-dashoffset: 0; stroke-linejoin: miter; stroke-miterlimit: 4; fill: #DBD5CB; fill-rule: nonzero; opacity: 1;"  transform=" translate(-112.996464487, -251.0016495644)" d="M 66.028732 267 C 66.028961 249.509247 66.01149 232.518478 66.036255 215.527771 C 66.0504 205.827576 70.768333 201.018372 80.370125 201.001831 C 102.024933 200.964493 123.679916 200.959305 145.334702 201.004562 C 154.820145 201.024384 159.838303 205.900436 159.885071 215.513 C 160.000168 239.166199 159.998932 262.820709 159.886169 286.473938 C 159.840332 296.090576 154.840363 300.970642 145.350357 300.993103 C 123.69561 301.044342 102.040581 301.042847 80.385818 300.993988 C 70.731483 300.972198 66.070244 296.19516 66.033859 286.489716 C 66.010132 280.159882 66.028961 273.829926 66.028732 267 M 128.499634 207.14389 C 112.839783 207.144135 97.179916 207.128754 81.520096 207.151459 C 74.172005 207.162109 72.286903 209.000824 72.278992 216.249481 C 72.253708 239.406006 72.25415 262.562622 72.278648 285.719147 C 72.286339 292.987457 74.161774 294.844055 81.497017 294.852966 C 102.321236 294.878265 123.145523 294.876984 143.969742 294.853027 C 151.64856 294.844177 153.66243 292.825531 153.725449 284.992981 C 153.793823 276.497223 153.743866 268.000519 153.743713 259.504211 C 153.743469 245.343719 153.78624 231.183044 153.723221 217.022827 C 153.688324 209.182495 151.64473 207.182358 143.992966 207.14859 C 139.161835 207.127274 134.330521 207.144196 128.499634 207.14389 z" stroke-linecap="round" />
</g>
		<g transform="matrix(1 0 0 1 101.4329052016 -2.347225608)" id="LgzQG6S4IgJ5LSB-1MGhT"  >
<path style="stroke: none; stroke-width: 1; stroke-dasharray: none; stroke-linecap: butt; stroke-dashoffset: 0; stroke-linejoin: miter; stroke-miterlimit: 4; fill: #DBD5CB; fill-rule: nonzero; opacity: 1;"  transform=" translate(-351.4329052016, -247.652774392)" d="M 348.781433 267.992584 C 344.020813 267.000305 346.399017 270.55365 346.284027 271.849976 C 345.774017 277.598938 344.230011 279.230469 338.542694 278.983704 C 333.55484 278.767334 332.031006 277.164459 332.015045 271.672943 C 331.96817 255.538239 331.96524 239.403183 332.016418 223.268494 C 332.034485 217.576462 333.653381 216.004379 339.04306 216.004074 C 344.500305 216.003769 346.080872 217.523224 346.129791 223.174164 C 346.199646 231.24498 346.147552 239.316864 346.147552 248.754532 C 350.008942 245.327988 352.672485 242.690506 355.61618 240.415619 C 360.169617 236.896713 362.418396 237.205536 365.734344 241.332031 C 369.10437 245.525848 368.863678 247.488007 364.49295 251.364548 C 362.278625 253.328522 360.056854 255.284119 357.481232 257.55899 C 361.356812 260.842712 364.820129 263.914734 368.432709 266.799927 C 372.158295 269.775299 371.127533 272.722321 368.741302 275.841095 C 366.316284 279.01059 363.44339 280.708008 359.869202 277.819855 C 356.12793 274.796722 352.659149 271.43631 348.781433 267.992584 z" stroke-linecap="round" />
</g>
		<g transform="matrix(1 0 0 1 13.9953092113 7.5797863158)" id="LsBsxmXg-vbvnhXy1RkUo"  >
<path style="stroke: none; stroke-width: 1; stroke-dasharray: none; stroke-linecap: butt; stroke-dashoffset: 0; stroke-linejoin: miter; stroke-miterlimit: 4; fill: #DBD5CB; fill-rule: nonzero; opacity: 1;"  transform=" translate(-263.9953092113, -257.5797863158)" d="M 284.771912 276.59201 C 279.486603 279.963928 275.77652 279.62796 271.166351 275.736328 C 262.517487 280.80835 254.822266 279.518646 248.069412 271.865326 C 241.064392 263.926208 240.673157 252.51239 247.125427 244.326935 C 253.786194 235.876999 261.510315 234.299423 269.477875 238.476303 C 274.214264 237.511551 277.465973 236.19725 280.581451 236.465408 C 282.376556 236.619919 285.37149 239.30867 285.398773 240.898392 C 285.600891 252.671097 285.192871 264.454285 284.771912 276.59201 M 267.214417 251.240356 C 265.927124 250.987366 264.599274 250.395447 263.360016 250.543747 C 259.346893 251.024033 257.036652 253.464294 256.970032 257.504822 C 256.90625 261.372101 259.187103 263.757019 262.889221 264.367645 C 266.977844 265.042023 270.082123 262.900208 270.534576 259.063232 C 270.809723 256.729675 268.814606 254.128464 267.214417 251.240356 z" stroke-linecap="round" />
</g>
		<g transform="matrix(1 0 0 1 146.7050068684 7.5269668305)" id="gQjcX6p2dhO5R11vo0WDq"  >
<path style="stroke: none; stroke-width: 1; stroke-dasharray: none; stroke-linecap: butt; stroke-dashoffset: 0; stroke-linejoin: miter; stroke-miterlimit: 4; fill: #DBD5CB; fill-rule: nonzero; opacity: 1;"  transform=" translate(-396.7050068684, -257.5269668305)" d="M 374.355896 259.589935 C 374.229004 247.238068 380.640686 238.509155 391.428986 235.859436 C 401.295013 233.436249 411.709747 238.038864 416.491638 246.93544 C 421.321075 255.920609 419.171021 267.401581 411.372498 274.270447 C 398.060089 285.99588 378.095123 278.294647 374.355896 259.589935 M 399.775146 250.163162 C 393.726257 249.211777 390.029816 250.988312 389.023773 255.330338 C 388.045654 259.552124 389.874298 263.284882 393.626801 264.726227 C 397.247803 266.117065 401.839813 264.533173 403.629944 261.275879 C 405.654175 257.592621 404.526611 253.704361 399.775146 250.163162 z" stroke-linecap="round" />
</g>
		<g transform="matrix(1 0 0 1 -39.3286224803 -0.8900576382)" id="Ga9r6lxzZi1HcY-6a_Kmx"  >
<path style="stroke: none; stroke-width: 1; stroke-dasharray: none; stroke-linecap: butt; stroke-dashoffset: 0; stroke-linejoin: miter; stroke-miterlimit: 4; fill: #DBD5CB; fill-rule: nonzero; opacity: 1;"  transform=" translate(-210.6713775197, -249.1099423618)" d="M 217.79866 273.382568 C 216.923828 279.496368 212.680267 279.19397 208.608749 278.87265 C 204.457565 278.545013 203.723129 275.567871 203.729706 272.073151 C 203.752319 260.075867 203.595383 248.076477 203.783997 236.082245 C 203.84642 232.113571 202.446686 230.712036 198.564392 231.015686 C 195.25238 231.274704 191.899368 230.956589 188.571884 231.084991 C 184.529022 231.240997 182.248962 229.717987 182.147507 225.40152 C 182.040085 220.832214 184.449203 219.183365 188.663696 219.211792 C 194.995285 219.254501 201.327438 219.206177 207.659363 219.206024 C 215.990875 219.205826 224.32251 219.244675 232.653824 219.207184 C 236.7966 219.188538 239.219223 220.566879 239.198563 225.293152 C 239.177353 230.154022 236.543015 231.181366 232.467041 231.084061 C 227.84584 230.97374 223.219971 231.058594 217.828979 231.058594 C 217.828979 245.409164 217.828979 259.176727 217.79866 273.382568 z" stroke-linecap="round" />
</g>
		<g transform="matrix(1 0 0 1 58.9901139341 7.5030230049)" id="wRbxYkwgpURFOPOX-2bBy"  >
<path style="stroke: none; stroke-width: 1; stroke-dasharray: none; stroke-linecap: butt; stroke-dashoffset: 0; stroke-linejoin: miter; stroke-miterlimit: 4; fill: #DBD5CB; fill-rule: nonzero; opacity: 1;"  transform=" translate(-308.9901139341, -257.5030230049)" d="M 316.296387 252.674011 C 324.396332 255.646759 327.28714 259.645386 326.749725 266.743164 C 326.196747 274.046631 322.445099 277.641724 314.168854 279.185272 C 307.365387 280.454132 300.962585 279.581757 294.782471 276.479156 C 291.320648 274.741241 290.179199 272.477844 292.087158 268.839752 C 293.926208 265.333069 296.127899 263.05777 300.356659 265.206757 C 304.301849 267.211639 308.189362 269.611237 313.136902 265.755859 C 311.162476 265.138214 309.222015 264.362549 307.207855 263.929626 C 297.112366 261.759583 292.329346 256.612518 292.528229 247.980499 C 292.661041 242.215485 295.200562 238.528305 300.651978 236.718475 C 307.751343 234.361542 314.749878 234.922546 321.568787 237.94635 C 324.222382 239.123093 325.655518 240.896454 324.182709 243.843811 C 322.776489 246.65799 321.683014 249.716644 317.248688 248.460068 C 313.674347 247.447174 309.895508 247.155945 306.01709 247.382187 C 307.940002 252.539169 312.596619 251.089508 316.296387 252.674011 z" stroke-linecap="round" />
</g>
		<g transform="matrix(1 0 0 1 -111.9882042178 1.0006770411)" id="kuUaRTkI7TiYKQKgLhgH1"  >
<path style="stroke: none; stroke-width: 1; stroke-dasharray: none; stroke-linecap: butt; stroke-dashoffset: 0; stroke-linejoin: miter; stroke-miterlimit: 4; fill: #DBD5CB; fill-rule: nonzero; opacity: 1;"  transform=" translate(-138.0117957822, -251.0006770411)" d="M 128.754608 259.999939 C 128.755646 246.860184 128.725449 234.220322 128.771347 221.580719 C 128.793991 215.347488 130.520416 213.708328 136.863113 213.589539 C 144.91658 213.438705 147.143906 214.965347 147.185333 221.54248 C 147.308914 241.166443 147.307388 260.792145 147.187988 280.416138 C 147.147873 287.011322 144.90448 288.569672 136.904938 288.411011 C 130.379074 288.281586 128.797287 286.666046 128.763519 279.958496 C 128.730881 273.472443 128.755341 266.986145 128.754608 259.999939 z" stroke-linecap="round" />
</g>
		<g transform="matrix(1 0 0 1 -161.9853889369 -8.4289790636)" id="8Hekvf9O-OHjgZhJ8rMo2"  >
<path style="stroke: none; stroke-width: 1; stroke-dasharray: none; stroke-linecap: butt; stroke-dashoffset: 0; stroke-linejoin: miter; stroke-miterlimit: 4; fill: #DBD5CB; fill-rule: nonzero; opacity: 1;"  transform=" translate(-88.0146110631, -241.5710209364)" d="M 90.470505 269.769745 C 88.223045 269.76535 86.368317 269.92099 84.566414 269.680664 C 80.978569 269.202087 78.794708 267.214905 78.789551 263.392487 C 78.769997 248.903625 78.758598 234.414719 78.787582 219.925903 C 78.79512 216.155106 80.837402 214.149902 84.53833 213.660339 C 94.495842 212.34314 97.243431 214.705841 97.25354 224.729874 C 97.2658 236.887299 97.219048 249.04483 97.259071 261.202118 C 97.273911 265.708801 95.936394 269.0802 90.470505 269.769745 z" stroke-linecap="round" />
</g>
		<g transform="matrix(1 0 0 1 -136.9919327036 -20.8348662725)" id="aZ-DbO6E3jqPfEiZIEpjX"  >
<path style="stroke: none; stroke-width: 1; stroke-dasharray: none; stroke-linecap: butt; stroke-dashoffset: 0; stroke-linejoin: miter; stroke-miterlimit: 4; fill: #DBD5CB; fill-rule: nonzero; opacity: 1;"  transform=" translate(-113.0080672964, -229.1651337275)" d="M 117.90834 244.256958 C 115.70591 244.538742 113.887573 244.803146 112.071442 244.788712 C 105.681915 244.737976 103.807259 242.837769 103.760071 236.413605 C 103.720932 231.084427 103.665596 225.752548 103.789619 220.425873 C 103.903732 215.52475 105.81395 213.825058 111.026039 213.59137 C 118.825111 213.241699 121.722244 214.651627 122.01783 219.730377 C 122.375107 225.869095 122.440315 232.068161 121.958641 238.188126 C 121.796677 240.246063 119.574173 242.1418 117.90834 244.256958 z" stroke-linecap="round" />
</g>
</g>
</g>
</svg>